<svg width="120" height="100" viewBox="0 0 120 100" xmlns="http://www.w3.org/2000/svg">
  <!-- Caboose -->
  <!-- Coupling hook left -->
  <circle cx="8" cy="60" r="3" fill="#666"/>
  <rect x="8" y="58" width="10" height="4" fill="#333" rx="1"/>
  
  <!-- Cupola (observation deck) -->
  <rect x="45" y="15" width="30" height="20" fill="#8B0000" rx="2"/>
  <rect x="50" y="20" width="8" height="10" fill="#87CEEB" rx="1"/>
  <rect x="62" y="20" width="8" height="10" fill="#87CEEB" rx="1"/>
  
  <!-- Main body -->
  <rect x="18" y="35" width="84" height="30" fill="#FF6347" rx="3"/>
  
  <!-- Roof -->
  <rect x="15" y="30" width="90" height="5" fill="#CD5C5C" rx="2"/>
  
  <!-- Windows -->
  <rect x="28" y="42" width="15" height="15" fill="#87CEEB" rx="2"/>
  <rect x="77" y="42" width="15" height="15" fill="#87CEEB" rx="2"/>
  
  <!-- Door in middle -->
  <rect x="52" y="40" width="16" height="22" fill="#8B4513" rx="2"/>
  <circle cx="65" cy="51" r="1.5" fill="#FFD700"/>
  
  <!-- Railing -->
  <rect x="25" y="63" width="3" height="8" fill="#333"/>
  <rect x="92" y="63" width="3" height="8" fill="#333"/>
  <rect x="25" y="69" width="70" height="2" fill="#333"/>
  
  <!-- Wheels -->
  <g>
    <circle cx="35" cy="75" r="10" fill="#333"/>
    <circle cx="35" cy="75" r="6" fill="#666"/>
    <circle cx="35" cy="75" r="3" fill="#999"/>
    
    <circle cx="85" cy="75" r="10" fill="#333"/>
    <circle cx="85" cy="75" r="6" fill="#666"/>
    <circle cx="85" cy="75" r="3" fill="#999"/>
  </g>
  
  <!-- Base -->
  <rect x="20" y="65" width="80" height="5" fill="#CD5C5C"/>
  
  <!-- End bumper -->
  <rect x="102" y="50" width="8" height="15" fill="#8B0000" rx="2"/>
</svg>

