<svg width="120" height="100" viewBox="0 0 120 100" xmlns="http://www.w3.org/2000/svg">
  <!-- Train Car -->
  <!-- Coupling hook left -->
  <circle cx="8" cy="60" r="3" fill="#666"/>
  <rect x="8" y="58" width="10" height="4" fill="#333" rx="1"/>
  
  <!-- Main body -->
  <rect x="18" y="35" width="84" height="30" fill="#1E90FF" rx="3"/>
  
  <!-- Roof -->
  <rect x="15" y="30" width="90" height="5" fill="#1C86EE" rx="2"/>
  
  <!-- Windows -->
  <rect x="28" y="42" width="18" height="15" fill="#87CEEB" rx="2"/>
  <rect x="52" y="42" width="18" height="15" fill="#87CEEB" rx="2"/>
  <rect x="76" y="42" width="18" height="15" fill="#87CEEB" rx="2"/>
  
  <!-- Window dividers -->
  <line x1="37" y1="42" x2="37" y2="57" stroke="#333" stroke-width="1"/>
  <line x1="61" y1="42" x2="61" y2="57" stroke="#333" stroke-width="1"/>
  <line x1="85" y1="42" x2="85" y2="57" stroke="#333" stroke-width="1"/>
  
  <!-- Coupling hook right -->
  <rect x="102" y="58" width="10" height="4" fill="#333" rx="1"/>
  <circle cx="112" cy="60" r="3" fill="#666"/>
  
  <!-- Wheels -->
  <g>
    <circle cx="35" cy="75" r="10" fill="#333"/>
    <circle cx="35" cy="75" r="6" fill="#666"/>
    <circle cx="35" cy="75" r="3" fill="#999"/>
    
    <circle cx="85" cy="75" r="10" fill="#333"/>
    <circle cx="85" cy="75" r="6" fill="#666"/>
    <circle cx="85" cy="75" r="3" fill="#999"/>
  </g>
  
  <!-- Base -->
  <rect x="20" y="65" width="80" height="5" fill="#1C86EE"/>
</svg>

