<svg width="120" height="100" viewBox="0 0 120 100" xmlns="http://www.w3.org/2000/svg">
  <!-- Train Engine -->
  <!-- Smoke stack -->
  <rect x="25" y="15" width="10" height="15" fill="#333" rx="2"/>
  <!-- Smoke puffs -->
  <circle cx="30" cy="8" r="4" fill="#AAA" opacity="0.6"/>
  <circle cx="35" cy="5" r="3" fill="#BBB" opacity="0.5"/>
  
  <!-- Cabin -->
  <rect x="15" y="30" width="50" height="35" fill="#DC143C" rx="3"/>
  
  <!-- Cabin roof -->
  <path d="M 12 30 L 40 20 L 68 30 Z" fill="#8B0000"/>
  
  <!-- Window -->
  <rect x="30" y="40" width="20" height="15" fill="#87CEEB" rx="2"/>
  <line x1="40" y1="40" x2="40" y2="55" stroke="#333" stroke-width="1"/>
  
  <!-- Front section -->
  <rect x="65" y="40" width="25" height="25" fill="#B22222" rx="3"/>
  <circle cx="85" cy="52.5" r="6" fill="#FFD700"/>
  
  <!-- Connecting bar -->
  <rect x="90" y="58" width="15" height="4" fill="#333" rx="1"/>
  <circle cx="105" cy="60" r="3" fill="#666"/>
  
  <!-- Wheels -->
  <g>
    <circle cx="25" cy="75" r="10" fill="#333"/>
    <circle cx="25" cy="75" r="6" fill="#666"/>
    <circle cx="25" cy="75" r="3" fill="#999"/>
    
    <circle cx="50" cy="75" r="10" fill="#333"/>
    <circle cx="50" cy="75" r="6" fill="#666"/>
    <circle cx="50" cy="75" r="3" fill="#999"/>
    
    <circle cx="75" cy="75" r="10" fill="#333"/>
    <circle cx="75" cy="75" r="6" fill="#666"/>
    <circle cx="75" cy="75" r="3" fill="#999"/>
  </g>
  
  <!-- Base -->
  <rect x="10" y="65" width="85" height="5" fill="#8B0000"/>
</svg>

